<svg id="Layer_1" data-name="Layer 1" xmlns="http://www.w3.org/2000/svg" viewBox="0 0 1920 1080"><defs><style>.cls-1{fill:#3c679e;}</style></defs><title>Artboard 1 copy 2</title><polygon class="cls-1" points="1583.72 205.11 1583.72 206.22 1390.13 328.26 1390.13 205.11 1583.72 205.11"/><polygon class="cls-1" points="1583.72 261.61 1583.72 284.9 1390.13 406.94 1390.13 383.65 1583.72 261.61"/><polygon class="cls-1" points="1583.72 340.28 1583.72 363.58 1390.13 485.62 1390.13 462.32 1583.72 340.28"/><polygon class="cls-1" points="1583.72 418.96 1583.72 871 1390.13 871 1390.13 541 1583.72 418.96"/><polygon class="cls-1" points="569.99 205.11 956.17 871 724.07 871 337.89 205.11 569.99 205.11"/><polygon class="cls-1" points="730.07 205.11 343.89 871 575.99 871 962.17 205.11 730.07 205.11"/><polygon class="cls-1" points="1486.92 871 1254.82 871 1176.22 735.47 956.92 871 724.82 871 765.58 800.72 765.58 800.71 786.88 763.98 837.52 676.67 989.82 414.06 1105.87 213.96 1221.92 414.07 1230.52 428.9 1203.4 446 1152.76 533.31 1254.04 469.46 1263.94 486.51 1263.94 486.52 1131.46 570.04 1080.83 657.34 1287.45 527.07 1297.35 544.13 1059.53 694.07 1008.9 781.36 1320.87 584.68 1390.13 704.11 1486.92 871"/></svg>