<svg id="Layer_1" data-name="Layer 1" xmlns="http://www.w3.org/2000/svg" viewBox="0 0 1000 1000"><defs><style>.cls-1{fill:#3c679e;}</style></defs><title>Artboard 1</title><polygon class="cls-1" points="920.96 275 920.96 275.75 790.13 358.22 790.13 275 920.96 275"/><polygon class="cls-1" points="920.96 313.18 920.96 328.92 790.13 411.39 790.13 395.65 920.96 313.18"/><polygon class="cls-1" points="920.96 366.35 920.96 382.09 790.13 464.56 790.13 448.82 920.96 366.35"/><polygon class="cls-1" points="920.96 419.52 920.96 725 698.69 725 645.58 633.41 497.37 725 340.02 725 289.98 638.72 239.95 725 83.09 725 211.56 503.5 79.04 275 235.89 275 289.98 368.27 344.07 275 500.92 275 368.41 503.5 418.69 590.21 519.61 416.21 598.03 280.98 676.46 416.21 682.27 426.24 663.94 437.79 629.72 496.79 698.16 453.64 704.86 465.17 704.86 465.17 615.33 521.62 581.11 580.61 720.74 492.58 727.43 504.11 566.72 605.43 532.5 664.42 743.33 531.51 790.13 612.22 790.13 501.99 920.96 419.52"/></svg>